<svg width="36" height="36" viewBox="0 0 36 36" fill="none" xmlns="http://www.w3.org/2000/svg">
<g clip-path="url(#clip0_8_7)">
<path d="M18 0.5C8.34 0.5 0.5 8.33 0.5 18C0.5 27.66 8.34 35.5 18 35.5C27.66 35.5 35.5 27.67 35.5 18C35.5 8.33 27.66 0.5 18 0.5Z" fill="#F4F4F6"/>
<path d="M28.66 7.5C28.66 7.04 28.45 6.6 28.08 6.32C27.71 6.03 27.24 5.93 26.79 6.05L12.91 9.58C12.25 9.75 11.78 10.35 11.78 11.03V21.46C11.34 21.31 10.88 21.21 10.39 21.21C7.97 21.22 6 23.19 6 25.61C6 28.03 7.97 30 10.39 30C12.71 30 14.59 28.19 14.75 25.91C14.77 25.81 14.78 25.71 14.78 25.61V12.2L25.66 9.43V17.46C25.22 17.31 24.76 17.21 24.27 17.21C21.85 17.21 19.88 19.18 19.88 21.6C19.88 24.02 21.85 26 24.27 26C26.59 26 28.47 24.19 28.63 21.91C28.65 21.81 28.66 21.71 28.66 21.61V7.5Z" fill="url(#paint0_linear_8_7)"/>
</g>
<defs>
<linearGradient id="paint0_linear_8_7" x1="5.6675" y1="31.4646" x2="31.1665" y2="5.9655" gradientUnits="userSpaceOnUse">
<stop stop-color="#BB33DD"/>
<stop offset="1" stop-color="#FF5160"/>
</linearGradient>
<clipPath id="clip0_8_7">
<rect width="36" height="36" fill="white"/>
</clipPath>
</defs>
</svg>
